<?xml version="1.0" standalone="no"?>
<svg viewBox="0 0 200 200" xmlns="http://www.w3.org/2000/svg">
  <path fill="#FF0066" d="M24.8,-44.1C32.8,-38.3,40.4,-33,47.3,-25.7C54.2,-18.5,60.4,-9.2,65.8,3.1C71.2,15.4,75.7,30.9,69.4,39.2C63.1,47.6,46.1,48.9,32.7,50C19.3,51.1,9.7,51.9,-1.6,54.6C-12.8,57.4,-25.6,62,-39.6,61.2C-53.6,60.5,-68.8,54.5,-75,43.4C-81.3,32.3,-78.6,16.2,-71.9,3.9C-65.2,-8.4,-54.4,-16.8,-47.1,-26.1C-39.9,-35.5,-36.1,-45.8,-28.9,-52C-21.6,-58.3,-10.8,-60.4,-1.2,-58.4C8.4,-56.3,16.8,-49.9,24.8,-44.1Z" transform="translate(100 100)" />
</svg>
